<svg width="31" height="32" viewBox="0 0 31 32" fill="none" xmlns="http://www.w3.org/2000/svg">
<path d="M30.5631 18.9349V13.4062L26.5285 13.0541C26.2926 12.1894 25.9587 11.3561 25.5336 10.5714L28.1375 7.40206L24.3294 3.49321L21.2417 6.16602C20.4835 5.72797 19.6774 5.38397 18.8401 5.14127L18.497 0.999995H13.0661L12.723 5.14127C11.8858 5.38397 11.0796 5.72797 10.3215 6.16602L7.23374 3.49321L3.42557 7.40206L6.02954 10.5714C5.60439 11.3561 5.27046 12.1894 5.03461 13.0541L1 13.4062V18.9349L5.03461 19.2871C5.27172 20.1457 5.60562 20.973 6.02954 21.7521L3.42557 24.9215L7.23374 28.8303L10.3215 26.1575C11.0796 26.5956 11.8858 26.9396 12.723 27.1823L13.0661 31.3235H18.4524L18.7955 27.1823C19.6383 26.9399 20.4502 26.5959 21.2142 26.1575L24.3019 28.8303L28.1101 24.9215L25.5061 21.7521C25.93 20.973 26.2639 20.1457 26.5011 19.2871L30.5631 18.9349Z" fill="#121523" stroke="black" stroke-width="0.7" stroke-linecap="round" stroke-linejoin="round"/>
<path d="M9.73819 18.7568H8.80638L10.9001 12.9387H11.9143L14.0081 18.7568H13.0763L11.4314 13.9955H11.3859L9.73819 18.7568ZM9.89444 16.4784H12.9172V17.2171H9.89444V16.4784ZM14.9283 18.7568V12.9387H17.0021C17.4548 12.9387 17.8298 13.021 18.1271 13.1858C18.4245 13.3506 18.647 13.576 18.7948 13.8619C18.9425 14.146 19.0163 14.4661 19.0163 14.8222C19.0163 15.1801 18.9415 15.5021 18.7919 15.7881C18.6442 16.0722 18.4207 16.2976 18.1215 16.4642C17.8241 16.629 17.4501 16.7114 16.9993 16.7114H15.5732V15.9671H16.9198C17.2057 15.9671 17.4377 15.9178 17.6158 15.8193C17.7938 15.719 17.9245 15.5826 18.0078 15.4102C18.0912 15.2379 18.1328 15.0419 18.1328 14.8222C18.1328 14.6025 18.0912 14.4074 18.0078 14.2369C17.9245 14.0665 17.7929 13.933 17.6129 13.8364C17.4349 13.7398 17.2001 13.6915 16.9084 13.6915H15.8061V18.7568H14.9283ZM21.0033 12.9387V18.7568H20.1255V12.9387H21.0033Z" fill="#FCFCFC"/>
<circle cx="15.9648" cy="16.2568" r="9.25" stroke="black" stroke-width="0.5"/>
</svg>
