<svg width="39" height="31" viewBox="0 0 39 31" fill="none" xmlns="http://www.w3.org/2000/svg">
<path fill-rule="evenodd" clip-rule="evenodd" d="M8.10042 0C5.87514 0 4.22853 1.94347 4.30226 4.05111C4.37303 6.07597 4.28109 8.69847 3.61946 10.8371C2.95547 12.9818 1.8333 14.3408 0 14.5153V16.4847C1.8333 16.6595 2.95547 18.0179 3.61938 20.1629C4.28109 22.3015 4.37295 24.924 4.30219 26.9489C4.22845 29.0562 5.87506 31 8.10073 31H30.9025C33.1278 31 34.7741 29.0565 34.7004 26.9489C34.6296 24.924 34.7216 22.3015 35.3832 20.1629C36.0472 18.0179 37.1666 16.659 39 16.4847V14.5153C37.1667 14.3405 36.0473 12.9821 35.3832 10.8371C34.7215 8.69878 34.6296 6.07597 34.7004 4.05111C34.7741 1.94377 33.1278 0 30.9025 0H8.10042ZM26.4407 19.0825C26.4407 21.9847 24.2713 23.7447 20.671 23.7447H14.5424C14.367 23.7447 14.1989 23.6752 14.0749 23.5515C13.951 23.4278 13.8813 23.2601 13.8813 23.0851V7.91493C13.8813 7.74 13.951 7.57224 14.0749 7.44854C14.1989 7.32485 14.367 7.25535 14.5424 7.25535H20.6361C23.6381 7.25535 25.6083 8.87792 25.6083 11.3691C25.6083 13.1176 24.2829 14.6829 22.5944 14.9572V15.0484C24.893 15.3 26.4407 16.8885 26.4407 19.0825ZM20.0027 9.3462H16.5083V14.2714H19.4515C21.7267 14.2714 22.9813 13.3572 22.9813 11.7231C22.9811 10.1918 21.9025 9.3462 20.0027 9.3462ZM16.5083 16.2255V21.6532H20.1313C22.5003 21.6532 23.755 20.7047 23.755 18.9222C23.755 17.1397 22.4651 16.2252 19.979 16.2252L16.5083 16.2255Z" fill="#7952B3"/>
</svg>
