<svg width="25" height="27" viewBox="0 0 25 27" fill="none" xmlns="http://www.w3.org/2000/svg">
<path d="M24.7874 0.404297L22.6201 24.1445L12.8782 26.7853L3.16302 24.1482L0.998047 0.404297H24.7874Z" fill="#264DE4"/>
<path d="M20.7646 22.6326L22.6166 2.34558H12.8926V24.7666L20.7646 22.6326Z" fill="#2965F1"/>
<path d="M5.96118 11.1519L6.22811 14.0639H12.8927V11.1519H5.96118Z" fill="#EBEBEB"/>
<path d="M12.8929 5.25769H12.8826H5.42505L5.69578 8.16981H12.8929V5.25769Z" fill="#EBEBEB"/>
<path d="M12.8926 21.7448V18.715L12.8796 18.7184L9.56274 17.8427L9.35071 15.5201H7.73899H6.36108L6.77833 20.0925L12.8789 21.7485L12.8926 21.7448Z" fill="#EBEBEB"/>
<path d="M16.5494 14.0639L16.2037 17.8406L12.8821 18.7173V21.7469L18.9875 20.0924L19.0323 19.6004L19.7321 11.9338L19.8048 11.1518L20.3425 5.25769H12.8821V8.16981H17.0786L16.8076 11.1518H12.8821V14.0639H16.5494Z" fill="#1E2235"/>
</svg>
