<svg width="19" height="28" viewBox="0 0 19 28" fill="none" xmlns="http://www.w3.org/2000/svg">
<path d="M4.91987 27.3441C7.4227 27.3441 9.45399 25.315 9.45399 22.8149V18.2856H4.91987C2.41703 18.2856 0.385742 20.3147 0.385742 22.8149C0.385742 25.315 2.41703 27.3441 4.91987 27.3441Z" fill="#0ACF83"/>
<path d="M0.385742 13.7564C0.385742 11.2563 2.41703 9.22717 4.91987 9.22717H9.45399V18.2856H4.91987C2.41703 18.2856 0.385742 16.2565 0.385742 13.7564Z" fill="#A259FF"/>
<path d="M0.385986 4.69769C0.385986 2.19755 2.41727 0.168457 4.92011 0.168457H9.45423V9.22691H4.92011C2.41727 9.22691 0.385986 7.19782 0.385986 4.69769Z" fill="#F24E1E"/>
<path d="M9.4541 0.168701H13.9882C16.4911 0.168701 18.5224 2.1978 18.5224 4.69793C18.5224 7.19806 16.4911 9.22716 13.9882 9.22716H9.4541V0.168701Z" fill="#FF7262"/>
<path d="M18.5224 13.7564C18.5224 16.2565 16.4911 18.2856 13.9882 18.2856C11.4854 18.2856 9.4541 16.2565 9.4541 13.7564C9.4541 11.2563 11.4854 9.22717 13.9882 9.22717C16.4911 9.22717 18.5224 11.2563 18.5224 13.7564Z" fill="#1ABCFE"/>
</svg>
