<svg width="32" height="32" viewBox="0 0 32 32" fill="none" xmlns="http://www.w3.org/2000/svg">
<path d="M30.9687 14.6138L17.3853 1.03116C16.6035 0.248889 15.3348 0.248889 14.552 1.03116L11.7313 3.85182L15.3095 7.42997C16.141 7.14899 17.0945 7.33748 17.7573 8.0003C18.4233 8.66736 18.6104 9.62901 18.3227 10.4632L21.771 13.9116C22.6053 13.6242 23.5679 13.8102 24.2342 14.4776C25.1655 15.4085 25.1655 16.9173 24.2342 17.8488C23.3027 18.7804 21.794 18.7804 20.862 17.8488C20.1615 17.1476 19.9884 16.1188 20.3431 15.2559L17.1272 12.04L17.1268 20.5028C17.3599 20.6181 17.5729 20.7704 17.7573 20.9537C18.6886 21.8846 18.6886 23.3935 17.7573 24.3257C16.8258 25.2569 15.3163 25.2569 14.3861 24.3257C13.4549 23.3935 13.4549 21.8847 14.3861 20.9538C14.6093 20.7305 14.8745 20.5537 15.1665 20.4336V11.8919C14.8741 11.7725 14.6087 11.5956 14.3861 11.3716C13.6805 10.667 13.5109 9.63168 13.8724 8.76531L10.3452 5.23773L1.03132 14.551C0.248676 15.334 0.248676 16.6029 1.03132 17.3853L14.615 30.9682C15.397 31.7506 16.6655 31.7506 17.4485 30.9682L30.9686 17.4484C31.751 16.6657 31.751 15.3961 30.9686 14.6138" fill="#EF4444"/>
</svg>
