<svg width="27" height="27" viewBox="0 0 27 27" fill="none" xmlns="http://www.w3.org/2000/svg">
<path d="M13.5666 0.172363C6.16731 0.172363 0.167236 6.17138 0.167236 13.5718C0.167236 19.4921 4.00657 24.5147 9.3306 26.2865C10.0002 26.4105 10.2461 25.9958 10.2461 25.6419C10.2461 25.3224 10.2336 24.2668 10.228 23.1472C6.50013 23.9577 5.71353 21.5662 5.71353 21.5662C5.10402 20.0174 4.22578 19.6057 4.22578 19.6057C3.01011 18.774 4.31742 18.791 4.31742 18.791C5.66299 18.8856 6.3715 20.1719 6.3715 20.1719C7.56657 22.2204 9.5061 21.6281 10.2707 21.2858C10.391 20.4197 10.7383 19.8287 11.1214 19.4941C8.1453 19.1552 5.01658 18.0062 5.01658 12.872C5.01658 11.4091 5.54003 10.2137 6.39724 9.27541C6.25811 8.93786 5.7995 7.57506 6.52703 5.72938C6.52703 5.72938 7.65222 5.36924 10.2128 7.1029C11.2816 6.80591 12.4279 6.65711 13.5666 6.65206C14.7054 6.65711 15.8525 6.80591 16.9234 7.1029C19.481 5.36924 20.6046 5.72938 20.6046 5.72938C21.3339 7.57506 20.8751 8.93786 20.7359 9.27541C21.595 10.2137 22.1149 11.409 22.1149 12.872C22.1149 18.0184 18.9803 19.1517 15.9966 19.4834C16.4772 19.8992 16.9054 20.7147 16.9054 21.9647C16.9054 23.7575 16.8899 25.2005 16.8899 25.6419C16.8899 25.9985 17.1311 26.4163 17.8104 26.2847C23.1315 24.5109 26.966 19.4901 26.966 13.5718C26.966 6.17138 20.9667 0.172363 13.5666 0.172363Z" fill="white"/>
<path d="M5.18555 19.2603C5.15612 19.3268 5.05124 19.3468 4.95593 19.3012C4.85872 19.2575 4.80407 19.1667 4.8356 19.0998C4.8645 19.0313 4.96938 19.0122 5.06637 19.0582C5.16379 19.1018 5.21928 19.1935 5.18555 19.2603ZM5.84467 19.8484C5.78077 19.9076 5.65582 19.8801 5.57101 19.7865C5.48337 19.6931 5.46698 19.5682 5.53182 19.508C5.59771 19.4488 5.71888 19.4765 5.80673 19.57C5.89437 19.6645 5.9114 19.7886 5.84456 19.8485L5.84467 19.8484ZM6.29687 20.6008C6.21469 20.6579 6.08038 20.6044 5.99747 20.4852C5.91539 20.3662 5.91539 20.2232 5.99925 20.166C6.08248 20.1087 6.21469 20.1602 6.29876 20.2784C6.38073 20.3996 6.38073 20.5425 6.29676 20.6009L6.29687 20.6008ZM7.0615 21.4723C6.98804 21.5532 6.83167 21.5316 6.71712 21.421C6.60005 21.313 6.56737 21.1597 6.64104 21.0787C6.71533 20.9975 6.87265 21.0203 6.98804 21.1299C7.10437 21.2378 7.1399 21.3922 7.0616 21.4723H7.0615ZM8.04976 21.7666C8.0175 21.8715 7.8668 21.9192 7.71505 21.8746C7.56351 21.8287 7.46431 21.7057 7.49489 21.5997C7.52641 21.4941 7.67774 21.4444 7.83065 21.4921C7.98198 21.5378 8.08139 21.6598 8.04986 21.7666H8.04976ZM9.17464 21.8913C9.17842 22.0019 9.04969 22.0935 8.89037 22.0955C8.73011 22.099 8.60053 22.0095 8.59885 21.9009C8.59885 21.7893 8.72464 21.6985 8.8848 21.6958C9.04412 21.6927 9.17464 21.7815 9.17464 21.8913ZM10.2795 21.849C10.2987 21.9568 10.1879 22.0675 10.0297 22.097C9.87422 22.1253 9.73024 22.0588 9.71038 21.952C9.69105 21.8414 9.80391 21.7307 9.95913 21.702C10.1176 21.6745 10.2594 21.7394 10.2795 21.849Z" fill="white"/>
</svg>
