<svg width="25" height="24" viewBox="0 0 25 24" fill="none" xmlns="http://www.w3.org/2000/svg">
<path d="M24.1397 0.117188H0.529297V23.7276H24.1397V0.117188Z" fill="#F7DF1E"/>
<path d="M16.3896 18.563C16.8652 19.3395 17.484 19.9103 18.5783 19.9103C19.4976 19.9103 20.0849 19.4509 20.0849 18.816C20.0849 18.0552 19.4815 17.7858 18.4696 17.3432L17.915 17.1052C16.3139 16.4231 15.2503 15.5686 15.2503 13.7622C15.2503 12.0983 16.5182 10.8315 18.4996 10.8315C19.9102 10.8315 20.9243 11.3225 21.6551 12.6079L19.9275 13.7173C19.5471 13.0352 19.1367 12.7665 18.4996 12.7665C17.8497 12.7665 17.4379 13.1787 17.4379 13.7173C17.4379 14.3829 17.8501 14.6523 18.802 15.0646L19.3567 15.3022C21.2418 16.1105 22.3061 16.9347 22.3061 18.7875C22.3061 20.785 20.737 21.8794 18.6296 21.8794C16.5692 21.8794 15.238 20.8975 14.5866 19.6105L16.3896 18.563ZM8.5521 18.7553C8.90064 19.3737 9.21769 19.8965 9.97997 19.8965C10.7089 19.8965 11.1687 19.6113 11.1687 18.5023V10.9582H13.3874V18.5323C13.3874 20.8296 12.0405 21.8752 10.0744 21.8752C8.29801 21.8752 7.26927 20.9559 6.74609 19.8487L8.5521 18.7553Z" fill="black"/>
</svg>
