<svg width="27" height="30" viewBox="0 0 27 30" fill="none" xmlns="http://www.w3.org/2000/svg">
<path d="M12.3799 1.03309C13.0895 0.62693 14.0137 0.625096 14.7227 1.03309C18.2895 3.04853 21.8574 5.0608 25.4236 7.07745C26.0944 7.45528 26.5431 8.20177 26.5362 8.97465V21.1003C26.5412 21.9052 26.0482 22.6695 25.3406 23.0387C21.7855 25.0431 18.2322 27.0498 14.6778 29.0542C13.9535 29.4683 13.0107 29.4364 12.3091 28.9883C11.2432 28.3705 10.1756 27.7557 9.10968 27.1384C8.89188 27.0086 8.64634 26.9052 8.49254 26.694C8.62851 26.5108 8.87159 26.4879 9.06912 26.4079C9.51402 26.2665 9.92263 26.0394 10.3313 25.819C10.4347 25.7483 10.5609 25.7754 10.6599 25.8387C11.5713 26.3612 12.4747 26.899 13.3891 27.4166C13.5842 27.5292 13.7817 27.3797 13.9485 27.2867C17.4371 25.315 20.93 23.3507 24.4181 21.3784C24.5473 21.3162 24.6187 21.1791 24.6082 21.0375C24.6107 17.0375 24.6089 13.0368 24.6095 9.03683C24.6243 8.8762 24.5313 8.72851 24.3861 8.66277C20.8433 6.66762 17.3024 4.66941 13.7602 2.67375C13.6989 2.63156 13.6262 2.60893 13.5517 2.60882C13.4772 2.60871 13.4045 2.63113 13.343 2.67314C9.80083 4.66941 6.26052 6.66945 2.71838 8.6645C2.57365 8.73034 2.47652 8.87558 2.49374 9.03683C2.49435 13.0368 2.49374 17.0375 2.49374 21.0381C2.4876 21.1072 2.50277 21.1765 2.53721 21.2367C2.57165 21.2968 2.62371 21.345 2.68638 21.3747C3.63161 21.9108 4.57807 22.443 5.52392 22.9772C6.05678 23.264 6.71102 23.4344 7.2981 23.2147C7.81618 23.0289 8.17933 22.5002 8.16944 21.9501C8.17434 17.9735 8.167 13.9962 8.17311 10.0202C8.16017 9.84365 8.32763 9.6978 8.49927 9.71441C8.95344 9.71136 9.40822 9.7083 9.86239 9.71564C10.052 9.71136 10.1824 9.90144 10.159 10.0793C10.1572 14.0811 10.1639 18.083 10.1559 22.0848C10.1572 23.1514 9.71898 24.3119 8.73247 24.8337C7.51713 25.4633 6.01499 25.3298 4.81433 24.7261C3.77492 24.2073 2.783 23.595 1.76203 23.0393C1.05255 22.672 0.561988 21.9046 0.566982 21.1004V8.97465C0.559542 8.18577 1.02604 7.42572 1.7177 7.0534C5.27217 5.04745 8.82603 3.03996 12.3799 1.03309Z" fill="#8CC84B"/>
<path d="M15.4808 9.43271C17.031 9.33293 18.6907 9.3736 20.0857 10.1373C21.1658 10.7226 21.7646 11.9508 21.7836 13.1508C21.7535 13.3126 21.5843 13.4019 21.4298 13.3908C20.98 13.3902 20.5301 13.3969 20.0803 13.3877C19.8895 13.3951 19.7786 13.2192 19.7546 13.0505C19.6254 12.4763 19.3123 11.9077 18.7719 11.6308C17.9423 11.2155 16.9805 11.2363 16.0759 11.245C15.4156 11.2801 14.7055 11.3373 14.146 11.7256C13.7165 12.0197 13.586 12.6135 13.7393 13.0918C13.8839 13.4351 14.2802 13.5459 14.6046 13.6481C16.4728 14.1367 18.4526 14.0881 20.2852 14.7311C21.0439 14.9932 21.7861 15.5029 22.0458 16.2972C22.3855 17.3619 22.2366 18.6346 21.4791 19.4893C20.8648 20.1927 19.9701 20.5755 19.0778 20.7834C17.8907 21.0481 16.6587 21.0548 15.4532 20.9373C14.3196 20.8081 13.1399 20.5102 12.2648 19.7379C11.5165 19.0881 11.151 18.0757 11.1873 17.0986C11.1959 16.9336 11.3602 16.8185 11.5183 16.832C11.9713 16.8284 12.4242 16.8271 12.8772 16.8327C13.0581 16.8197 13.1922 16.9761 13.2015 17.1466C13.2851 17.6936 13.4906 18.2677 13.9676 18.5921C14.8882 19.186 16.0433 19.1453 17.0974 19.1619C17.9707 19.1232 18.951 19.1115 19.6636 18.5343C20.0396 18.205 20.151 17.6543 20.0494 17.1804C19.9393 16.7804 19.5208 16.5939 19.1614 16.472C17.3171 15.8886 15.3153 16.1003 13.4888 15.4406C12.7473 15.1785 12.0303 14.6831 11.7454 13.9213C11.3479 12.8432 11.53 11.5096 12.3669 10.6837C13.1829 9.86222 14.3609 9.54585 15.4808 9.43261V9.43271Z" fill="#8CC84B"/>
</svg>
