<svg width="30" height="26" viewBox="0 0 30 26" fill="none" xmlns="http://www.w3.org/2000/svg">
<path d="M15 15.5371C16.4457 15.5371 17.6176 14.4012 17.6176 13C17.6176 11.5989 16.4457 10.463 15 10.463C13.5544 10.463 12.3824 11.5989 12.3824 13C12.3824 14.4012 13.5544 15.5371 15 15.5371Z" fill="#61DAFB"/>
<path fill-rule="evenodd" clip-rule="evenodd" d="M2.69761 11.6634C2.10484 12.182 1.90869 12.6352 1.90869 13C1.90869 13.3648 2.10484 13.818 2.69761 14.3366C3.29027 14.8552 4.20146 15.3646 5.40864 15.8113C7.81643 16.7023 11.2072 17.2729 15 17.2729C18.7928 17.2729 22.1836 16.7023 24.5914 15.8113C25.7985 15.3646 26.7097 14.8552 27.3024 14.3366C27.8952 13.818 28.0913 13.3648 28.0913 13C28.0913 12.6352 27.8952 12.182 27.3024 11.6634C26.7097 11.1448 25.7985 10.6354 24.5914 10.1887C22.1836 9.29767 18.7928 8.72715 15 8.72715C11.2072 8.72715 7.81643 9.29767 5.40864 10.1887C4.20146 10.6354 3.29027 11.1448 2.69761 11.6634ZM4.72781 8.46046C7.40354 7.47026 11.0356 6.87721 15 6.87721C18.9644 6.87721 22.5965 7.47026 25.2722 8.46046C26.6068 8.95435 27.7525 9.56501 28.5814 10.2902C29.4101 11.0153 30 11.9294 30 13C30 14.0706 29.4101 14.9847 28.5814 15.7098C27.7525 16.435 26.6068 17.0457 25.2722 17.5395C22.5965 18.5297 18.9644 19.1228 15 19.1228C11.0356 19.1228 7.40354 18.5297 4.72781 17.5395C3.39322 17.0457 2.24747 16.435 1.41863 15.7098C0.589905 14.9847 0 14.0706 0 13C0 11.9294 0.589905 11.0153 1.41863 10.2902C2.24747 9.56501 3.39322 8.95435 4.72781 8.46046Z" fill="#61DAFB"/>
<path fill-rule="evenodd" clip-rule="evenodd" d="M10.0431 2.00542C9.28331 1.76718 8.78025 1.82916 8.45433 2.01154C8.1284 2.19392 7.8215 2.58518 7.65447 3.34205C7.48747 4.09879 7.48792 5.1183 7.69233 6.35494C8.10006 8.82149 9.28568 11.9529 11.1821 15.1364C13.0785 18.32 15.2836 20.8808 17.2837 22.4564C18.2865 23.2463 19.1972 23.7564 19.9569 23.9946C20.7167 24.2328 21.2197 24.1708 21.5456 23.9885C21.8716 23.8061 22.1785 23.4148 22.3455 22.658C22.5125 21.9012 22.512 20.8817 22.3076 19.6451C21.8999 17.1785 20.7143 14.0471 18.8179 10.8636C16.9215 7.68003 14.7163 5.11915 12.7163 3.54365C11.7135 2.75375 10.8028 2.24361 10.0431 2.00542ZM13.9201 2.10805C16.1427 3.85889 18.4887 6.61099 20.4709 9.9386C22.4531 13.2662 23.7392 16.6114 24.1923 19.3524C24.4183 20.7196 24.4455 21.9866 24.212 23.0449C23.9784 24.103 23.4566 25.0553 22.5 25.5906C21.5434 26.1259 20.4316 26.0878 19.3694 25.7547C18.307 25.4216 17.1885 24.7652 16.0799 23.8919C13.8572 22.1411 11.5113 19.389 9.5291 16.0614C7.54689 12.7338 6.26078 9.38863 5.80768 6.6476C5.58169 5.28044 5.55445 4.0134 5.788 2.95512C6.02152 1.89696 6.54339 0.944735 7.49998 0.409444C8.45658 -0.125847 9.56835 -0.0877766 10.6306 0.245292C11.693 0.578402 12.8115 1.23478 13.9201 2.10805Z" fill="#61DAFB"/>
<path fill-rule="evenodd" clip-rule="evenodd" d="M22.3455 3.34205C22.1785 2.58518 21.8716 2.19391 21.5457 2.01154C21.2197 1.82916 20.7167 1.76718 19.9569 2.00542C19.1972 2.24361 18.2865 2.75374 17.2837 3.54364C15.2836 5.11915 13.0785 7.68002 11.1821 10.8636C9.28569 14.0471 8.10007 17.1785 7.69235 19.6451C7.48793 20.8817 7.48748 21.9012 7.65448 22.6579C7.82151 23.4148 8.12842 23.8061 8.45434 23.9885C8.78026 24.1708 9.28332 24.2328 10.0431 23.9946C10.8028 23.7564 11.7135 23.2463 12.7163 22.4564C14.7163 20.8808 16.9215 18.32 18.8179 15.1364C20.7143 11.9529 21.8999 8.82149 22.3076 6.35494C22.5121 5.1183 22.5125 4.09879 22.3455 3.34205ZM24.1923 6.64759C23.7392 9.38863 22.4531 12.7338 20.4709 16.0614C18.4887 19.389 16.1427 22.1411 13.9201 23.8919C12.8115 24.7652 11.693 25.4216 10.6306 25.7547C9.56837 26.0878 8.45659 26.1258 7.5 25.5906C6.5434 25.0553 6.02153 24.103 5.78801 23.0449C5.55447 21.9866 5.5817 20.7196 5.8077 19.3524C6.26079 16.6114 7.5469 13.2662 9.52911 9.9386C11.5113 6.61098 13.8573 3.85888 16.0799 2.10805C17.1885 1.23478 18.307 0.578399 19.3694 0.245289C20.4316 -0.0877801 21.5434 -0.12585 22.5 0.409441C23.4566 0.944732 23.9785 1.89696 24.212 2.95511C24.4455 4.0134 24.4183 5.28044 24.1923 6.64759Z" fill="#61DAFB"/>
</svg>
