<svg width="34" height="21" viewBox="0 0 34 21" fill="none" xmlns="http://www.w3.org/2000/svg">
<path d="M17 0C12.4665 0 9.63326 2.33338 8.49979 6.99971C10.2 4.66633 12.1834 3.79164 14.4499 4.37476C15.7432 4.70748 16.6675 5.67366 17.6909 6.74273C19.3575 8.48423 21.2865 10.4998 25.5002 10.4998C30.0333 10.4998 32.8669 8.1664 34 3.49964C32.3002 5.83302 30.3168 6.70814 28.0499 6.12502C26.757 5.7923 25.8327 4.82612 24.8093 3.75705C23.1427 2.01555 21.2133 0 17 0ZM8.49979 10.4998C3.96674 10.4998 1.13305 12.8332 0 17.4999C1.69979 15.1665 3.68316 14.2914 5.95011 14.875C7.24302 15.2081 8.16731 16.1739 9.19067 17.2425C10.8573 18.984 12.7867 21 17 21C21.5335 21 24.3667 18.6666 25.5002 13.9999C23.8 16.3332 21.8166 17.2084 19.5501 16.6248C18.2568 16.2925 17.3325 15.3259 16.3091 14.2573C14.6425 12.5158 12.7135 10.4998 8.49979 10.4998Z" fill="#06B6D4"/>
</svg>
