<svg width="31" height="30" viewBox="0 0 31 30" fill="none" xmlns="http://www.w3.org/2000/svg">
<path d="M1.13594 10.6407C1.13594 10.6407 0.410427 10.1177 1.28105 9.41939L3.30947 7.6056C3.30947 7.6056 3.88988 6.99496 4.50355 7.527L23.2219 21.6988V28.4944C23.2219 28.4944 23.2128 29.5616 21.8434 29.4437L1.13594 10.6407Z" fill="#2489CA"/>
<path d="M5.9608 15.0211L1.13611 19.4075C1.13611 19.4075 0.640344 19.7763 1.13611 20.4353L3.37615 22.4728C3.37615 22.4728 3.90819 23.0441 4.69417 22.3942L9.80907 18.5157L5.9608 15.0211Z" fill="#1070B3"/>
<path d="M14.4307 15.0572L23.279 8.30082L23.2216 1.5414C23.2216 1.5414 22.8437 0.0661798 21.5831 0.83402L9.80859 11.5505L14.4307 15.0572Z" fill="#0877B9"/>
<path d="M21.8435 29.4526C22.3574 29.9786 22.9801 29.8063 22.9801 29.8063L29.8755 26.4085C30.7583 25.8069 30.6343 25.0602 30.6343 25.0602V4.76992C30.6343 3.87814 29.7214 3.56979 29.7214 3.56979L23.7449 0.688879C22.439 -0.11826 21.5835 0.833983 21.5835 0.833983C21.5835 0.833983 22.6839 0.0419592 23.222 1.54136V28.3704C23.222 28.5548 23.1827 28.7362 23.1041 28.8994C22.9469 29.2169 22.6053 29.5131 21.786 29.3892L21.8435 29.4526Z" fill="#3C99D4"/>
</svg>
