<svg width="32" height="32" viewBox="0 0 32 32" fill="none" xmlns="http://www.w3.org/2000/svg">
<path d="M2.21116 15.5552C2.21116 20.8375 5.28081 25.402 9.73203 27.5654L3.3665 10.1243C2.60342 11.8331 2.20972 13.6837 2.21116 15.5552ZM24.5643 14.8818C24.5643 13.2326 23.9719 12.0904 23.4638 11.2015C22.7874 10.1022 22.1536 9.17136 22.1536 8.07213C22.1536 6.84544 23.0837 5.70356 24.3942 5.70356C24.4533 5.70356 24.5094 5.71093 24.5673 5.71423C22.1929 3.53914 19.0298 2.21114 15.5557 2.21114C10.8937 2.21114 6.79214 4.60307 4.40605 8.22601C4.71913 8.2354 5.01444 8.24175 5.26481 8.24175C6.66061 8.24175 8.82122 8.07239 8.82122 8.07239C9.54058 8.02998 9.62539 9.08655 8.90705 9.17161C8.90705 9.17161 8.18388 9.25667 7.37946 9.29882L12.239 23.7533L15.1596 14.9948L13.0802 9.29857C12.3616 9.25642 11.6809 9.17136 11.6809 9.17136C10.9618 9.12921 11.0461 8.02973 11.7652 8.07213C11.7652 8.07213 13.9689 8.2415 15.2802 8.2415C16.6757 8.2415 18.8366 8.07213 18.8366 8.07213C19.5565 8.02973 19.641 9.08629 18.9222 9.17136C18.9222 9.17136 18.1977 9.25642 17.3948 9.29857L22.2173 23.6436L23.5481 19.1956C24.1253 17.3499 24.5643 16.0242 24.5643 14.8818Z" fill="#00749A"/>
<path d="M15.7898 16.7224L11.786 28.3566C13.0101 28.7173 14.2796 28.9005 15.5557 28.9005C17.1097 28.9005 18.6 28.6316 19.9871 28.144C19.9499 28.0858 19.9181 28.0242 19.8922 27.9602L15.7898 16.7224ZM27.265 9.15282C27.3224 9.57789 27.3549 10.0344 27.3549 10.525C27.3549 11.8792 27.102 13.4014 26.3402 15.3048L22.264 27.09C26.2313 24.7765 28.8998 20.4784 28.8998 15.5552C28.9033 13.3174 28.341 11.115 27.265 9.15282Z" fill="#00749A"/>
<path d="M15.5557 0C6.97851 0 0 6.97799 0 15.5552C0 24.1334 6.97826 31.1114 15.5557 31.1114C24.1326 31.1114 31.1122 24.1336 31.1122 15.5552C31.1119 6.97799 24.1326 0 15.5557 0ZM15.5557 30.3981C7.37183 30.3981 0.713264 23.7395 0.713264 15.5552C0.713264 7.37156 7.37158 0.713516 15.5557 0.713516C23.7393 0.713516 30.3974 7.37156 30.3974 15.5552C30.3974 23.7395 23.7391 30.3981 15.5557 30.3981Z" fill="#00749A"/>
</svg>
